<?xml version="1.0" encoding="UTF-8"?>
<!-- Created with Inkscape (http://www.inkscape.org/) -->
<svg width="329.95" height="196.91" version="1.1" viewBox="0 0 329.95 196.91" xmlns="http://www.w3.org/2000/svg">
 <g transform="translate(-335.69 -215.55)">
  <g stroke="#ccba87" stroke-linecap="round" stroke-linejoin="round">
   <g fill="none" stroke-miterlimit="10">
    <path transform="matrix(.13333 0 0 -.13333 0 668)" d="m2530.2 2994.8h2449.6" stroke-width="24.994"/>
    <g stroke-width="25">
     <path transform="matrix(.13333 0 0 -.13333 0 668)" d="m3755 3380.9v-386.09"/>
     <path transform="matrix(.13333 0 0 -.13333 0 668)" d="m4246.7 2994.8c-53.91 221.56-253.52 386.09-491.66 386.09s-437.76-164.53-491.66-386.09z"/>
     <path transform="matrix(.13333 0 0 -.13333 0 668)" d="m4047.8 3287.6-292.75-292.76"/>
     <path transform="matrix(.13333 0 0 -.13333 0 668)" d="m3904.3 3358.5-149.33-363.69"/>
     <path transform="matrix(.13333 0 0 -.13333 0 668)" d="m4169 3160.4-413.97-165.54"/>
     <path transform="matrix(.13333 0 0 -.13333 0 668)" d="m3605.7 3358.5 149.33-363.69"/>
     <path transform="matrix(.13333 0 0 -.13333 0 668)" d="m3341 3160.4 413.97-165.54"/>
     <path transform="matrix(.13333 0 0 -.13333 0 668)" d="m3462.2 3287.6 292.75-292.76"/>
     <path transform="matrix(.13333 0 0 -.13333 0 668)" d="m3669 2994.8h-1000.2l-45 59.23h658"/>
     <path transform="matrix(.13333 0 0 -.13333 0 668)" d="m3281.7 3054h-492.77l-45.01 59.23h564.69"/>
     <path transform="matrix(.13333 0 0 -.13333 0 668)" d="m3841 2994.8h1000.2l45 59.23h-658"/>
     <path transform="matrix(.13333 0 0 -.13333 0 668)" d="m4228.3 3054h492.77l45 59.23h-564.68"/>
     <path transform="matrix(.13333 0 0 -.13333 0 668)" d="m4201.4 3113.3h399.63l45.01 59.22h-477.05"/>
     <path transform="matrix(.13333 0 0 -.13333 0 668)" d="m3308.6 3113.3h-399.63l-45 59.22h477.04"/>
    </g>
    <g stroke-width="3.3333">
     <path d="m663.97 359.31h-326.62"/>
     <path d="m500.67 410.79v-51.479"/>
     <path d="m435.11 359.31c7.1867 29.543 33.803 51.479 65.555 51.479s58.367-21.936 65.555-51.479z"/>
     <path d="m461.63 398.34 39.033-39.035"/>
     <path d="m480.76 407.8 19.911-48.492"/>
     <path d="m445.47 381.38 55.196-22.071"/>
     <path d="m520.58 407.8-19.911-48.492"/>
     <path d="m555.86 381.38-55.196-22.071"/>
     <path d="m539.7 398.34-39.033-39.035"/>
     <path d="m512.14 359.31h133.37l6 7.8973h-87.733"/>
     <path d="m563.77 367.21h65.703l6 7.896h-75.291"/>
     <path d="m489.19 359.31h-133.37l-6 7.8973h87.733"/>
     <path d="m437.56 367.21h-65.703l-6.0013 7.896h75.292"/>
     <path d="m441.15 375.1h-53.284l-6 7.8973h63.605"/>
     <path d="m560.18 375.1h53.284l6.0013 7.8973h-63.607"/>
    </g>
   </g>
   <path d="m664.15 268.58v90.785" stroke-width="2.7732"/>
   <path d="m337.22 268.56v90.785" stroke-width="2.7732"/>
  </g>
 </g>
</svg>
