<?xml version="1.0" encoding="UTF-8" standalone="no"?>
<!-- Created with Inkscape (http://www.inkscape.org/) -->

<svg
   version="1.1"
   id="svg1"
   width="328.04639"
   height="194.90666"
   viewBox="0 0 328.04638 194.90666"
   xmlns="http://www.w3.org/2000/svg"
   xmlns:svg="http://www.w3.org/2000/svg">
  <defs
     id="defs1" />
  <g
     id="g1"
     transform="translate(-336.66102,-216.54668)">
    <g
       id="group-R5">
      <path
         id="path182"
         d="M 2530.19,2994.81 H 4979.81"
         style="fill:none;stroke:#cea75d;stroke-width:9.9975;stroke-linecap:round;stroke-linejoin:round;stroke-miterlimit:10;stroke-dasharray:none;stroke-opacity:1"
         transform="matrix(0.13333333,0,0,-0.13333333,0,668)" />
      <path
         id="path183"
         d="M 3755,3380.9 V 2994.81"
         style="fill:none;stroke:#cea75d;stroke-width:10;stroke-linecap:round;stroke-linejoin:round;stroke-miterlimit:10;stroke-dasharray:none;stroke-opacity:1"
         transform="matrix(0.13333333,0,0,-0.13333333,0,668)" />
      <path
         id="path184"
         d="m 4246.66,2994.81 c -53.91,221.56 -253.52,386.09 -491.66,386.09 -238.14,0 -437.76,-164.53 -491.66,-386.09 z"
         style="fill:none;stroke:#cea75d;stroke-width:10;stroke-linecap:round;stroke-linejoin:round;stroke-miterlimit:10;stroke-dasharray:none;stroke-opacity:1"
         transform="matrix(0.13333333,0,0,-0.13333333,0,668)" />
      <path
         id="path185"
         d="M 4047.75,3287.57 3755,2994.81"
         style="fill:none;stroke:#cea75d;stroke-width:10;stroke-linecap:round;stroke-linejoin:round;stroke-miterlimit:10;stroke-dasharray:none;stroke-opacity:1"
         transform="matrix(0.13333333,0,0,-0.13333333,0,668)" />
      <path
         id="path186"
         d="M 3904.33,3358.5 3755,2994.81"
         style="fill:none;stroke:#cea75d;stroke-width:10;stroke-linecap:round;stroke-linejoin:round;stroke-miterlimit:10;stroke-dasharray:none;stroke-opacity:1"
         transform="matrix(0.13333333,0,0,-0.13333333,0,668)" />
      <path
         id="path187"
         d="M 4168.97,3160.35 3755,2994.81"
         style="fill:none;stroke:#cea75d;stroke-width:10;stroke-linecap:round;stroke-linejoin:round;stroke-miterlimit:10;stroke-dasharray:none;stroke-opacity:1"
         transform="matrix(0.13333333,0,0,-0.13333333,0,668)" />
      <path
         id="path188"
         d="M 3605.67,3358.5 3755,2994.81"
         style="fill:none;stroke:#cea75d;stroke-width:10;stroke-linecap:round;stroke-linejoin:round;stroke-miterlimit:10;stroke-dasharray:none;stroke-opacity:1"
         transform="matrix(0.13333333,0,0,-0.13333333,0,668)" />
      <path
         id="path189"
         d="M 3341.03,3160.35 3755,2994.81"
         style="fill:none;stroke:#cea75d;stroke-width:10;stroke-linecap:round;stroke-linejoin:round;stroke-miterlimit:10;stroke-dasharray:none;stroke-opacity:1"
         transform="matrix(0.13333333,0,0,-0.13333333,0,668)" />
      <path
         id="path190"
         d="M 3462.25,3287.57 3755,2994.81"
         style="fill:none;stroke:#cea75d;stroke-width:10;stroke-linecap:round;stroke-linejoin:round;stroke-miterlimit:10;stroke-dasharray:none;stroke-opacity:1"
         transform="matrix(0.13333333,0,0,-0.13333333,0,668)" />
      <path
         id="path191"
         d="M 3668.96,2994.81 H 2668.71 l -45,59.23 h 658"
         style="fill:none;stroke:#cea75d;stroke-width:10;stroke-linecap:round;stroke-linejoin:round;stroke-miterlimit:10;stroke-dasharray:none;stroke-opacity:1"
         transform="matrix(0.13333333,0,0,-0.13333333,0,668)" />
      <path
         id="path192"
         d="m 3281.71,3054.04 h -492.77 l -45.01,59.23 h 564.69"
         style="fill:none;stroke:#cea75d;stroke-width:10;stroke-linecap:round;stroke-linejoin:round;stroke-miterlimit:10;stroke-dasharray:none;stroke-opacity:1"
         transform="matrix(0.13333333,0,0,-0.13333333,0,668)" />
      <path
         id="path193"
         d="m 3841.04,2994.81 h 1000.25 l 45,59.23 h -658"
         style="fill:none;stroke:#cea75d;stroke-width:10;stroke-linecap:round;stroke-linejoin:round;stroke-miterlimit:10;stroke-dasharray:none;stroke-opacity:1"
         transform="matrix(0.13333333,0,0,-0.13333333,0,668)" />
      <path
         id="path194"
         d="m 4228.29,3054.04 h 492.77 l 45,59.23 h -564.68"
         style="fill:none;stroke:#cea75d;stroke-width:10;stroke-linecap:round;stroke-linejoin:round;stroke-miterlimit:10;stroke-dasharray:none;stroke-opacity:1"
         transform="matrix(0.13333333,0,0,-0.13333333,0,668)" />
      <path
         id="path195"
         d="m 4201.38,3113.27 h 399.63 l 45.01,59.22 h -477.05"
         style="fill:none;stroke:#cea75d;stroke-width:10;stroke-linecap:round;stroke-linejoin:round;stroke-miterlimit:10;stroke-dasharray:none;stroke-opacity:1"
         transform="matrix(0.13333333,0,0,-0.13333333,0,668)" />
      <path
         id="path196"
         d="m 3308.62,3113.27 h -399.63 l -45,59.22 h 477.04"
         style="fill:none;stroke:#cea75d;stroke-width:10;stroke-linecap:round;stroke-linejoin:round;stroke-miterlimit:10;stroke-dasharray:none;stroke-opacity:1"
         transform="matrix(0.13333333,0,0,-0.13333333,0,668)" />
      <path
         id="path197"
         d="M 663.97465,359.30801 H 337.35866"
         style="fill:none;stroke:#cea75d;stroke-width:1.33333;stroke-linecap:round;stroke-linejoin:round;stroke-miterlimit:10;stroke-dasharray:none;stroke-opacity:1" />
      <path
         id="path198"
         d="M 500.66665,410.78667 V 359.30801"
         style="fill:none;stroke:#cea75d;stroke-width:1.33333;stroke-linecap:round;stroke-linejoin:round;stroke-miterlimit:10;stroke-dasharray:none;stroke-opacity:1" />
      <path
         id="path199"
         d="m 435.11199,359.30801 c 7.18667,29.54266 33.80266,51.47866 65.55466,51.47866 31.752,0 58.36667,-21.936 65.55467,-51.47866 z"
         style="fill:none;stroke:#cea75d;stroke-width:1.33333;stroke-linecap:round;stroke-linejoin:round;stroke-miterlimit:10;stroke-dasharray:none;stroke-opacity:1" />
      <path
         id="path200"
         d="m 461.63332,398.34267 39.03333,-39.03466"
         style="fill:none;stroke:#cea75d;stroke-width:1.33333;stroke-linecap:round;stroke-linejoin:round;stroke-miterlimit:10;stroke-dasharray:none;stroke-opacity:1" />
      <path
         id="path201"
         d="m 480.75599,407.80001 19.91066,-48.492"
         style="fill:none;stroke:#cea75d;stroke-width:1.33333;stroke-linecap:round;stroke-linejoin:round;stroke-miterlimit:10;stroke-dasharray:none;stroke-opacity:1" />
      <path
         id="path202"
         d="m 445.47066,381.37867 55.19599,-22.07066"
         style="fill:none;stroke:#cea75d;stroke-width:1.33333;stroke-linecap:round;stroke-linejoin:round;stroke-miterlimit:10;stroke-dasharray:none;stroke-opacity:1" />
      <path
         id="path203"
         d="m 520.57732,407.80001 -19.91067,-48.492"
         style="fill:none;stroke:#cea75d;stroke-width:1.33333;stroke-linecap:round;stroke-linejoin:round;stroke-miterlimit:10;stroke-dasharray:none;stroke-opacity:1" />
      <path
         id="path204"
         d="m 555.86265,381.37867 -55.196,-22.07066"
         style="fill:none;stroke:#cea75d;stroke-width:1.33333;stroke-linecap:round;stroke-linejoin:round;stroke-miterlimit:10;stroke-dasharray:none;stroke-opacity:1" />
      <path
         id="path205"
         d="M 539.69999,398.34267 500.66665,359.30801"
         style="fill:none;stroke:#cea75d;stroke-width:1.33333;stroke-linecap:round;stroke-linejoin:round;stroke-miterlimit:10;stroke-dasharray:none;stroke-opacity:1" />
      <path
         id="path206"
         d="m 512.13865,359.30801 h 133.36667 l 6,7.89733 h -87.73333"
         style="fill:none;stroke:#cea75d;stroke-width:1.33333;stroke-linecap:round;stroke-linejoin:round;stroke-miterlimit:10;stroke-dasharray:none;stroke-opacity:1" />
      <path
         id="path207"
         d="m 563.77199,367.20534 h 65.70266 l 6,7.896 h -75.29066"
         style="fill:none;stroke:#cea75d;stroke-width:1.33333;stroke-linecap:round;stroke-linejoin:round;stroke-miterlimit:10;stroke-dasharray:none;stroke-opacity:1" />
      <path
         id="path208"
         d="M 489.19465,359.30801 H 355.82799 l -6,7.89733 h 87.73333"
         style="fill:none;stroke:#cea75d;stroke-width:1.33333;stroke-linecap:round;stroke-linejoin:round;stroke-miterlimit:10;stroke-dasharray:none;stroke-opacity:1" />
      <path
         id="path209"
         d="m 437.56132,367.20534 h -65.70266 l -6.00134,7.896 h 75.292"
         style="fill:none;stroke:#cea75d;stroke-width:1.33333;stroke-linecap:round;stroke-linejoin:round;stroke-miterlimit:10;stroke-dasharray:none;stroke-opacity:1" />
      <path
         id="path210"
         d="m 441.14932,375.10134 h -53.284 l -6,7.89733 h 63.60534"
         style="fill:none;stroke:#cea75d;stroke-width:1.33333;stroke-linecap:round;stroke-linejoin:round;stroke-miterlimit:10;stroke-dasharray:none;stroke-opacity:1" />
      <path
         id="path211"
         d="m 560.18399,375.10134 h 53.28399 l 6.00134,7.89733 h -63.60667"
         style="fill:none;stroke:#cea75d;stroke-width:1.33333;stroke-linecap:round;stroke-linejoin:round;stroke-miterlimit:10;stroke-dasharray:none;stroke-opacity:1" />
      <path
         style="fill:#000000;stroke:#cea75d;stroke-width:1.10929;stroke-linecap:round;stroke-linejoin:round;stroke-dasharray:none;stroke-opacity:1"
         d="m 664.15277,268.57774 v 90.78531"
         id="path212-1" />
      <path
         style="fill:#000000;stroke:#cea75d;stroke-width:1.10929;stroke-linecap:round;stroke-linejoin:round;stroke-dasharray:none;stroke-opacity:1"
         d="m 337.21567,268.56365 v 90.78532"
         id="path212-1-8" />
    </g>
  </g>
</svg>
