<?xml version="1.0" encoding="UTF-8"?>
<svg width="73.399mm" height="73.399mm" version="1.1" viewBox="0 0 73.399 73.399" xmlns="http://www.w3.org/2000/svg">
    <defs>
        <clipPath id="clipPath387-7">
            <path transform="translate(-366.53 -648.99)" d="M 0,923.955 H 921.772 V 0 H 0 Z"/>
        </clipPath>
    </defs>
    <g
            fill="#ccba87"
            stroke-linecap="round"
            stroke-linejoin="round" stroke-miterlimit="10">
        <path transform="matrix(.35278 0 0 -.35278 67.387 .62635)"
              d="m-120.34-61.842c-7.6405 0.8785-14.432 6.3149-14.939 14.082-0.4837 7.4163 2.9782 12.44 8.0859 16.369 5.1078 3.9287 11.852 7.0725 18.686 11.529 6.5867 4.2959 7.9922 8.9674 7.9922 12.697 0 3.7298-1.5352 6.416-1.5352 6.416a1.5002 1.5002 0 0 0 1.3008 2.248h100.75a1.5 1.5 0 0 0 1.5-1.5 1.5 1.5 0 0 0-1.5-1.5h-98.484c0.48313-1.4071 0.96484-3.3829 0.96484-5.6641 0-4.5661-2.0642-10.455-9.3535-15.209-7.0426-4.5932-13.798-7.7842-18.494-11.396s-7.3432-7.3352-6.9219-13.795c0.3989-6.1099 5.8251-10.554 12.287-11.297 6.462-0.743 13.732 2.146 17.725 11.201 8.4297 19.119 15.812 37.951 15.812 37.951a1.5002 1.5002 0 0 0 1.3906 0.95312l85.068 0.30078a1.5 1.5 0 0 0 1.5059-1.4941 1.5 1.5 0 0 0-1.4941-1.5059l-84.059-0.29688c-0.55961-1.4239-7.3574-18.696-15.48-37.119-4.4533-10.1-13.17-13.849-20.811-12.971z"
              color="#000000" style="-inkscape-stroke:none"/>
        <path transform="matrix(.35278 0 0 -.35278 -55.905 231.57)"
              d="m159.97 626.9a1.5002 1.5002 0 0 0-1.5 1.5v26.244a1.5002 1.5002 0 0 0 1.5 1.5h25.113a1.5002 1.5002 0 0 0 1.5-1.5v-26.244a1.5002 1.5002 0 0 0-1.5-1.5zm1.5 3h22.113v23.244h-22.113z"
              color="#000000" style="-inkscape-stroke:none"/>
        <path transform="matrix(.35278 0 0 -.35278 4.5996 64.717)"
              d="m-11.537-1.5a1.5 1.5 0 0 0-1.5 1.5v92.381a1.5002 1.5002 0 0 0 2.1055 1.3711s3.0713-1.3525 7.2246-1.0078c4.1533 0.34473 9.2731 2.2774 13.582 9.459 4.5663 7.6117 9.3562 14.262 15.025 18.318 5.6692 4.0566 12.404 5.3415 19.854 2.0586 3.8558-1.6992 6.264-4.5444 7.1914-7.8184 0.92745-3.274 0.44261-6.8835-1.002-10.326-2.8891-6.8853-9.6379-13.302-18.145-15.469-15.118-3.8508-30.101-10.422-31.447-11.016l0.14844-77.949a1.5 1.5 0 0 0-1.498-1.502 1.5 1.5 0 0 0-1.502 1.498l-0.15039 78.959a1.5002 1.5002 0 0 0 0.88867 1.373s16.653 7.4271 32.82 11.545c7.4813 1.9059 13.627 7.7815 16.119 13.721 1.2461 2.9696 1.573 5.9063 0.88086 8.3496-0.69214 2.4433-2.334 4.4874-5.5137 5.8887-6.6195 2.9171-11.854 1.8579-16.898-1.752-5.0448-3.6098-9.7146-9.9496-14.197-17.422a1.5002 1.5002 0 0 0-2e-3 0c-4.742-7.9034-10.972-10.497-15.906-10.906-2.848-0.23638-5.0119 0.16921-6.5781 0.5957v-90.35a1.5 1.5 0 0 0-1.5-1.5z"
              color="#000000" style="-inkscape-stroke:none"/>
        <path transform="matrix(.35278 0 0 -.35278 11.972 34.02)"
              d="m-0.017578-1.5a1.5 1.5 0 0 0-1.4824 1.5176l1.123 94.66a1.5002 1.5002 0 0 0 1.3105 1.4707s4.592 0.58934 10 0.08203c5.408-0.50731 11.846-2.0389 15.381-6.8672 1.2746-1.741 2.5324-3.2373 3.7871-4.6387 1.015 2.1144 2.1458 4.1667 3.582 5.9473 2.5018 3.1016 5.9708 5.4042 10.549 5.4883 4.7707 0.08721 7.9745-3.3084 8.3906-7.2422 0.41617-3.9344-1.6488-8.4115-6.252-11.09-4.5077-2.6233-8.8664-2.3979-12.543-0.30859-0.95713 0.5439-1.8755 1.2049-2.7676 1.9492-0.08343-0.20461-0.18335-0.3969-0.26562-0.60156-1.6416-4.0836-4.8769-6.5344-8.3965-7.4961-3.5196-0.96168-7.3224-0.5436-10.502 0.87891-3.7067 1.6583-5.1663 6.0315-5.9531 10.348-0.73833 4.0502-0.79669 8.1576-0.80273 10.764-1.3154-0.036724-1.9048-0.031409-2.5332-0.089844l-1.1074-93.289a1.5 1.5 0 0 0-1.5176-1.4824zm17.305 75.416c1.4574-0.13248 2.9409-0.0273 4.3203 0.34961 2.7589 0.75382 5.1049 2.4883 6.4043 5.7207 0.22155 0.55112 0.49971 1.1052 0.73242 1.6621-1.6634 1.7423-3.2551 3.7653-4.8496 5.9434-2.6496 3.6187-8.204 5.178-13.24 5.6504-0.96407 0.09044-1.6263 0.02775-2.5117 0.05469 0.00888-2.5673 0.08058-6.4772 0.75195-10.16 0.72195-3.9604 2.2042-7.2428 4.2285-8.1484 1.2757-0.57074 2.7066-0.93979 4.1641-1.0723zm22.488 4.9004c1.5447 0.0083 3.1937 0.50314 5.0879 1.6055 3.6929 2.1487 5.0592 5.5153 4.7773 8.1797-0.28183 2.6644-1.9054 4.6224-5.3535 4.5586-3.642-0.0669-6.1316-1.723-8.2676-4.3711-1.4038-1.7404-2.5459-3.9558-3.6074-6.2695 0.96743-0.87366 1.9377-1.8466 2.8984-2.3926 1.4799-0.84099 2.9201-1.3188 4.4648-1.3105z"
              color="#000000" style="-inkscape-stroke:none"/>
        <path transform="matrix(.35278 0 0 -.35278 34.021 11.745)"
              d="m-88.918-52.623c-3.9342 0.41585-7.3304 3.6192-7.2422 8.3906 0.08409 4.5789 2.3867 8.0468 5.4883 10.549 1.7806 1.4364 3.8329 2.5671 5.9473 3.582-1.4014 1.2545-2.8975 2.513-4.6387 3.7871-4.8283 3.5354-6.3599 9.9729-6.8672 15.381-0.50731 5.408 0.08203 10 0.08203 10a1.5002 1.5002 0 0 0 1.4707 1.3105l94.66 1.123a1.5 1.5 0 0 0 1.5176-1.4824 1.5 1.5 0 0 0-1.4824-1.5176l-93.289-1.1074c-0.05844-0.62835-0.05312-1.2178-0.08984-2.5332 2.6061-0.00604 6.7134-0.064403 10.764-0.80273 4.3161-0.7868 8.6893-2.2464 10.348-5.9531 1.4225-3.1795 1.8406-6.9826 0.87891-10.502-0.9617-3.5194-3.4125-6.753-7.4961-8.3945-0.20488-0.08236-0.39674-0.18406-0.60156-0.26758 0.74429-0.8921 1.4073-1.8084 1.9512-2.7656 2.0892-3.6769 2.3127-8.0382-0.31055-12.547-2.6784-4.6016-7.1556-6.6659-11.09-6.25zm0.31641 2.9844c2.6645-0.28165 6.0311 1.084 8.1797 4.7754 2.2048 3.7894 1.9768 6.5946 0.29492 9.5547-0.54604 0.96104-1.5186 1.9308-2.3926 2.8984-2.3139-1.0616-4.529-2.2034-6.2695-3.6074-2.6481-2.1362-4.3042-4.6264-4.3711-8.2695-0.06376-3.4476 1.8941-5.0699 4.5586-5.3516zm6.9512 20.895c0.55768 0.23303 1.1122 0.51254 1.6641 0.73438 3.2324 1.2994 4.9669 3.6438 5.7207 6.4023s0.41885 5.9329-0.72266 8.4844c-0.90566 2.0243-4.1881 3.5066-8.1484 4.2285-3.6829 0.67137-7.5929 0.74307-10.16 0.75195 0.02694-0.88544-0.03575-1.5476 0.05469-2.5117 0.47239-5.0358 2.0325-10.588 5.6504-13.238 2.178-1.5938 4.1992-3.1886 5.9414-4.8516z"
              color="#000000" style="-inkscape-stroke:none"/>
    </g>
    <path transform="matrix(.35278 0 0 -.35278 73.399 2.6216)"
          d="m0 0c0-3.374-2.734-6.109-6.108-6.109-3.375 0-6.109 2.735-6.109 6.109 0 3.373 2.734 6.108 6.109 6.108 3.374 0 6.108-2.735 6.108-6.108"
          clip-path="url(#clipPath387-7)"
          fill="#ccba87"
    />
    <path transform="matrix(.35278 0 0 -.35278 2.6841 69.822)"
          d="m0 0c-3.373 0-6.108 2.736-6.108 6.109 0 3.375 2.735 6.11 6.108 6.11s6.109-2.735 6.109-6.11c0-3.373-2.736-6.109-6.109-6.109"
          fill="#ccba87"
    />
    <path d="m-55.905-94.381h325.18v325.95h-325.18z" display="none" stroke-width=".35278"/>
</svg>
