<?xml version="1.0" encoding="UTF-8"?>
<!-- Created with Inkscape (http://www.inkscape.org/) -->
<svg width="20.47mm" height="99.347mm" version="1.1" viewBox="0 0 20.47 99.347" xmlns="http://www.w3.org/2000/svg">
 <g transform="translate(-152.14 -83.608)">
  <path transform="matrix(.35278 0 0 -.35278 172.18 133.04)" d="m0 0c0.311 0 0.593-0.209 0.673-0.525 0.094-0.371-0.131-0.748-0.504-0.842-8.45-2.133-8.689-11.112-8.694-11.492v-119.13c0-0.383-0.312-0.694-0.695-0.694-0.384 0-0.695 0.311-0.695 0.694l1e-3 119.14c1e-3 0.114 0.247 10.432 9.744 12.829 0.057 0.013 0.114 0.021 0.17 0.021" fill="#d1b978"/>
  <path transform="matrix(.35278 0 0 -.35278 172.18 133.21)" d="m0 0c-9.147-2.303-9.413-12.256-9.414-12.355l-1e-3 -119.14c0-0.212 0.39-0.214 0.39 0v119.13c6e-3 0.404 0.251 9.751 9.072 11.976 0.089 0.023 0.163 0.147 0.141 0.236-0.022 0.086-0.099 0.147-0.188 0.147m-9.22-132.69c-0.659 0-1.195 0.536-1.195 1.194l1e-3 119.14c1e-3 0.113 0.206 10.811 10.121 13.313 0.718 0.176 1.294-0.244 1.451-0.866 0.078-0.309 0.03-0.63-0.133-0.904-0.164-0.273-0.424-0.467-0.733-0.545-8.087-2.041-8.312-10.65-8.317-11.015v-119.12c0-0.658-0.536-1.194-1.195-1.194" fill="#c1af7c"/>
  <path transform="matrix(.35278 0 0 -.35278 166.12 176.67)" d="m0 0c0.383 0 0.694-0.311 0.694-0.693 0-0.385-0.311-0.696-0.694-0.696-4.01 0-7.272-3.261-7.272-7.271s3.262-7.274 7.272-7.274 7.272 3.264 7.272 7.274c0 0.383 0.312 0.693 0.696 0.693 0.383 0 0.694-0.31 0.694-0.693 0-4.778-3.886-8.662-8.662-8.662s-8.661 3.884-8.661 8.662c0 4.775 3.885 8.66 8.661 8.66" fill="#d1b978"/>
  <path transform="matrix(.35278 0 0 -.35278 166.12 176.84)" d="m0 0c-4.5 0-8.161-3.66-8.161-8.16 0-4.501 3.661-8.162 8.161-8.162s8.162 3.661 8.162 8.162c0 0.214-0.39 0.212-0.39 0 0-4.286-3.486-7.774-7.772-7.774s-7.772 3.488-7.772 7.774c0 4.285 3.486 7.771 7.772 7.771 0.107 0 0.194 0.088 0.194 0.196 0 0.106-0.087 0.193-0.194 0.193m0-17.322c-5.051 0-9.161 4.11-9.161 9.162 0 5.051 4.11 9.16 9.161 9.16 0.659 0 1.194-0.535 1.194-1.193 0-0.66-0.535-1.196-1.194-1.196-3.734 0-6.772-3.038-6.772-6.771 0-3.736 3.038-6.774 6.772-6.774s6.772 3.038 6.772 6.774c0 0.658 0.537 1.193 1.196 1.193 0.658 0 1.194-0.535 1.194-1.193 0-5.052-4.11-9.162-9.162-9.162" fill="#c1af7c"/>
  <path transform="matrix(.35278 0 0 -.35278 168.93 86.718)" d="m0 0c0.384 0 0.694-0.311 0.694-0.694v-119.14c6e-3 -0.371 0.244-9.35 8.695-11.48 0.372-0.096 0.597-0.473 0.504-0.844-0.094-0.373-0.472-0.598-0.844-0.504-9.496 2.396-9.742 12.715-9.743 12.818v119.15c0 0.383 0.311 0.694 0.694 0.694" fill="#d1b978"/>
  <path transform="matrix(.35278 0 0 -.35278 168.93 86.895)" d="m0 0c-0.107 0-0.194-0.087-0.194-0.194v-119.15c2e-3 -0.092 0.29-10.043 9.366-12.334l0.048-6e-3c0.089 0 0.166 0.061 0.188 0.148 0.026 0.104-0.038 0.21-0.143 0.237-8.816 2.223-9.064 11.561-9.071 11.957v119.15c0 0.107-0.087 0.194-0.194 0.194m9.22-132.69c-0.098 0-0.197 0.013-0.293 0.038-9.856 2.486-10.12 13.187-10.121 13.295v119.16c0 0.658 0.535 1.194 1.194 1.194s1.194-0.536 1.194-1.194v-119.14c6e-3 -0.357 0.234-8.957 8.317-10.996 0.639-0.164 1.027-0.814 0.866-1.45-0.133-0.531-0.609-0.904-1.157-0.904" fill="#c1af7c"/>
  <path transform="matrix(.35278 0 0 -.35278 166.12 83.785)" d="m0 0c4.776 0 8.662-3.886 8.662-8.663 0-0.384-0.31-0.694-0.694-0.694s-0.695 0.31-0.695 0.694c0 4.012-3.263 7.273-7.273 7.273s-7.272-3.261-7.272-7.273c0-4.009 3.262-7.273 7.272-7.273 0.384 0 0.695-0.311 0.695-0.695s-0.311-0.694-0.695-0.694c-4.775 0-8.661 3.887-8.661 8.662 0 4.777 3.886 8.663 8.661 8.663" fill="#d1b978"/>
  <path transform="matrix(.35278 0 0 -.35278 166.12 83.961)" d="m0 0c-4.5 0-8.161-3.662-8.161-8.163s3.661-8.162 8.161-8.162c0.107 0 0.195 0.087 0.195 0.194 0 0.108-0.088 0.195-0.195 0.195-4.286 0-7.772 3.487-7.772 7.773s3.486 7.773 7.772 7.773 7.773-3.487 7.773-7.773c0-0.214 0.389-0.214 0.389 0 0 4.501-3.662 8.163-8.162 8.163m0-17.325c-5.051 0-9.161 4.11-9.161 9.162 0 5.053 4.11 9.163 9.161 9.163 5.052 0 9.162-4.11 9.162-9.163 0-0.659-0.536-1.194-1.194-1.194-0.659 0-1.195 0.535-1.195 1.194 0 3.735-3.038 6.773-6.773 6.773-3.734 0-6.772-3.038-6.772-6.773 0-3.734 3.038-6.773 6.772-6.773 0.659 0 1.195-0.536 1.195-1.195s-0.536-1.194-1.195-1.194" fill="#c1af7c"/>
  <path transform="matrix(.35278 0 0 -.35278 161.69 134.53)" d="m0 0c2.11 0 4.073-0.477 5.871-1.426 3.379-1.785 5.98-5.252 7.136-9.51 0.999-3.681-0.171-8.056-2.911-10.886-2.567-2.653-6.037-3.625-9.773-2.742-4.993 1.183-7.134 5.361-7.04 8.98 0.101 3.855 2.576 6.885 6.16 7.539 2.093 0.383 3.837 0.025 5.182-1.06 2.477-2.002 2.62-5.735 2.625-5.893 0.013-0.381-0.288-0.701-0.671-0.715-0.389-0.012-0.704 0.289-0.717 0.672-1e-3 0.031-0.134 3.264-2.115 4.857-1.015 0.819-2.379 1.079-4.055 0.772-3.603-0.656-4.957-3.756-5.02-6.209-0.079-3.057 1.736-6.588 5.972-7.59 3.238-0.768 6.242 0.068 8.454 2.354 2.412 2.492 3.443 6.332 2.568 9.556-1.056 3.891-3.403 7.041-6.443 8.647-2.988 1.578-6.527 1.675-10.523 0.291-2.702-0.938-4.707-3.026-5.957-6.207-2.894-7.368-1.12-19.66 4.316-29.899 1.254-2.361 2.509-4.631 3.723-6.822 6.318-11.414 11.774-21.27 10.905-33.689-0.446-6.385-3.439-11.463-8.427-14.301-4.588-2.61-10.417-2.981-14.504-0.922-3.998 2.014-6.813 6.652-7.002 11.541-0.174 4.494 1.842 8.351 5.531 10.582 3.999 2.42 8.235 2.603 11.616 0.506 2.906-1.803 4.61-5.033 4.341-8.231-0.246-2.929-1.585-5.318-3.767-6.726-2.001-1.287-4.475-1.602-6.621-0.838-1.889 0.674-3.192 2.113-3.576 3.953-0.333 1.602 0.097 3.24 1.097 4.178 0.279 0.261 0.719 0.248 0.981-0.033 0.263-0.28 0.248-0.719-0.032-0.981-0.643-0.603-0.919-1.762-0.685-2.881 0.165-0.797 0.734-2.234 2.681-2.928 1.717-0.611 3.786-0.343 5.402 0.698 1.812 1.168 2.926 3.183 3.136 5.675 0.225 2.682-1.222 5.403-3.689 6.932-2.923 1.815-6.628 1.627-10.165-0.512-3.244-1.962-5.017-5.367-4.862-9.341 0.171-4.399 2.678-8.559 6.239-10.352 3.688-1.859 8.99-1.502 13.192 0.887 4.571 2.599 7.316 7.285 7.729 13.191 0.84 12.008-4.524 21.699-10.735 32.918-1.216 2.199-2.474 4.471-3.735 6.846-5.701 10.736-7.462 23.219-4.382 31.056 1.386 3.526 3.736 5.95 6.795 7.012 2.021 0.699 3.943 1.051 5.755 1.051" fill="#d1b978"/>
  <path transform="matrix(.35278 0 0 -.35278 158.08 159.44)" d="m0 0c-2.04 0-4.195-0.651-6.233-1.885-3.529-2.134-5.457-5.827-5.29-10.135 0.182-4.712 2.886-9.179 6.727-11.114 1.649-0.83 3.651-1.269 5.791-1.269 2.843 0 5.77 0.774 8.241 2.179 4.838 2.753 7.742 7.69 8.176 13.902 0.858 12.269-4.564 22.064-10.841 33.406-1.326 2.394-2.519 4.556-3.731 6.836-5.499 10.356-7.283 22.823-4.339 30.315 1.306 3.324 3.411 5.509 6.258 6.497 4.112 1.426 7.824 1.314 10.92-0.321 3.162-1.67 5.601-4.934 6.693-8.958 0.92-3.389-0.163-7.422-2.692-10.035-2.32-2.397-5.537-3.295-8.929-2.492-4.507 1.066-6.44 4.831-6.356 8.089 0.068 2.641 1.532 5.978 5.431 6.688 1.817 0.332 3.332 0.034 4.458-0.874 2.168-1.745 2.3-5.197 2.301-5.231 4e-3 -0.107 0.088-0.188 0.195-0.188 0.112 4e-3 0.197 0.093 0.194 0.198-5e-3 0.15-0.14 3.661-2.44 5.521-1.224 0.989-2.842 1.314-4.778 0.957-3.345-0.61-5.655-3.447-5.75-7.06-0.089-3.415 1.935-7.362 6.656-8.481 3.54-0.834 6.873 0.097 9.297 2.603 2.623 2.708 3.743 6.891 2.789 10.409-1.121 4.125-3.631 7.478-6.887 9.198-3.206 1.694-6.999 1.808-11.229 0.345-2.918-1.013-5.163-3.338-6.493-6.722-3.031-7.711-1.279-20.024 4.358-30.64 1.235-2.328 2.468-4.556 3.663-6.715l0.068-0.123c6.249-11.288 11.646-21.036 10.796-33.195-0.425-6.079-3.259-10.905-7.981-13.591-2.422-1.377-5.279-2.135-8.043-2.135-2.072 0-4.016 0.427-5.621 1.237-3.718 1.872-6.336 6.204-6.514 10.778-0.161 4.161 1.698 7.73 5.103 9.789 3.658 2.213 7.643 2.399 10.688 0.509 2.624-1.627 4.164-4.53 3.924-7.398-0.224-2.651-1.418-4.8-3.364-6.054-1.716-1.107-4.008-1.401-5.84-0.748-2.18 0.775-2.818 2.398-3.004 3.297-0.271 1.303 0.055 2.617 0.834 3.346 0.051 0.049 0.061 0.107 0.062 0.136 1e-3 0.03-5e-3 0.088-0.053 0.138-0.108 0.117-0.187 0.094-0.275 0.011-0.875-0.82-1.247-2.277-0.949-3.711 0.347-1.663 1.533-2.97 3.255-3.584 1.98-0.705 4.326-0.406 6.181 0.788 2.05 1.322 3.307 3.576 3.54 6.347 0.253 3.012-1.359 6.059-4.106 7.764-1.472 0.913-3.108 1.376-4.861 1.376m0.995-25.403c-2.295 0-4.453 0.476-6.241 1.377-4.156 2.092-7.08 6.902-7.276 11.967-0.182 4.683 1.922 8.703 5.772 11.03 4.11 2.486 8.637 2.675 12.138 0.503 3.064-1.902 4.86-5.315 4.575-8.698-0.259-3.087-1.677-5.61-3.994-7.104-2.114-1.36-4.789-1.698-7.059-0.889-2.057 0.734-3.478 2.309-3.898 4.321-0.367 1.769 0.121 3.592 1.244 4.646 0.463 0.433 1.256 0.405 1.689-0.058 0.218-0.23 0.332-0.534 0.322-0.853-0.011-0.319-0.145-0.615-0.378-0.833-0.513-0.481-0.734-1.474-0.538-2.413 0.144-0.694 0.641-1.947 2.36-2.56 1.545-0.551 3.502-0.294 4.963 0.647 1.68 1.083 2.713 2.964 2.909 5.298 0.209 2.496-1.146 5.034-3.455 6.464-2.729 1.695-6.308 1.501-9.642-0.514-3.084-1.866-4.769-5.109-4.622-8.895 0.164-4.222 2.561-8.211 5.965-9.925 1.467-0.739 3.255-1.129 5.171-1.129 2.594 0 5.274 0.711 7.549 2.004 4.421 2.515 7.076 7.058 7.477 12.792 0.83 11.864-4.501 21.493-10.673 32.641l-0.068 0.124c-1.197 2.163-2.433 4.397-3.671 6.73-5.766 10.858-7.537 23.506-4.406 31.473 1.44 3.665 3.894 6.19 7.096 7.302 4.498 1.557 8.572 1.417 12.024-0.405 3.5-1.85 6.192-5.429 7.384-9.822 1.044-3.845-0.175-8.413-3.034-11.365-2.671-2.762-6.359-3.8-10.247-2.881-5.266 1.248-7.523 5.66-7.425 9.48 0.107 4.098 2.748 7.32 6.571 8.018 2.234 0.406 4.131 0.011 5.585-1.164 2.654-2.144 2.806-6.098 2.811-6.265 0.022-0.655-0.495-1.207-1.153-1.231h-1e-3c-0.688 0-1.212 0.508-1.233 1.155-2e-3 0.029-0.141 3.045-1.929 4.485-0.895 0.721-2.131 0.949-3.652 0.669-3.309-0.603-4.551-3.463-4.61-5.73-0.074-2.854 1.625-6.153 5.587-7.091 3.045-0.719 5.906 0.073 7.979 2.215 2.293 2.369 3.276 6.018 2.446 9.078-1.02 3.757-3.278 6.795-6.195 8.335-2.85 1.507-6.281 1.594-10.125 0.261-2.559-0.888-4.462-2.879-5.655-5.917-2.845-7.24-1.08-19.363 4.291-29.481 1.208-2.273 2.4-4.431 3.72-6.815 6.357-11.486 11.845-21.401 10.967-33.967-0.459-6.555-3.541-11.776-8.68-14.7-2.619-1.49-5.722-2.31-8.735-2.31" fill="#c1af7c"/>
  <path transform="matrix(.35278 0 0 -.35278 158.76 133.04)" d="m0 0c0.282 0 0.547-0.172 0.651-0.453 0.134-0.359-0.05-0.76-0.41-0.893-4.511-1.674-7.608-4.769-9.202-9.199-6.598-18.332 13.813-53.951 14.02-54.309 0.192-0.332 0.079-0.757-0.253-0.949-0.332-0.191-0.758-0.078-0.95 0.252-0.858 1.485-20.94 36.537-14.125 55.475 1.74 4.834 5.114 8.209 10.027 10.033 0.08 0.029 0.161 0.043 0.242 0.043" fill="#d1b978"/>
  <path transform="matrix(.35278 0 0 -.35278 158.76 133.21)" d="m0 0c-4.837-1.782-8.111-5.058-9.798-9.745-6.732-18.705 13.234-53.58 14.087-55.056 0.066-0.114 0.188-0.115 0.267-0.068 0.06 0.034 0.082 0.088 0.09 0.117 7e-3 0.028 0.015 0.087-0.02 0.148-0.208 0.359-20.741 36.157-14.057 54.728 1.646 4.575 4.842 7.772 9.498 9.499 0.066 0.024 0.097 0.074 0.11 0.101 0.012 0.027 0.03 0.083 5e-3 0.148-0.035 0.095-0.12 0.128-0.182 0.128m4.458-65.896c-0.425 0-0.822 0.228-1.034 0.594-0.863 1.492-21.05 36.758-14.163 55.895 1.791 4.978 5.264 8.455 10.323 10.333 0.605 0.225 1.315-0.107 1.536-0.706 0.111-0.298 0.099-0.622-0.035-0.913-0.133-0.29-0.371-0.511-0.67-0.621-4.368-1.621-7.364-4.616-8.905-8.9-6.529-18.14 13.776-53.533 13.981-53.889 0.16-0.277 0.203-0.599 0.121-0.908-0.083-0.308-0.28-0.566-0.557-0.725-0.181-0.105-0.388-0.16-0.597-0.16" fill="#c1af7c"/>
  <path transform="matrix(.35278 0 0 -.35278 163.82 163.87)" d="m0 0c0.037 0 0.074-4e-3 0.112-0.01 0.378-0.06 0.635-0.418 0.575-0.797-0.144-0.88-3.299-21.642 13.971-26.041 0.372-0.095 0.597-0.474 0.502-0.845s-0.472-0.596-0.845-0.502c-18.506 4.715-15.037 27.384-15 27.611 0.056 0.342 0.35 0.584 0.685 0.584" fill="#d1b978"/>
  <path transform="matrix(.35278 0 0 -.35278 163.83 164.05)" d="m0 0c-0.123 0-0.2-0.068-0.215-0.161-0.036-0.225-3.421-22.448 14.63-27.047l0.047-6e-3c0.09 0 0.168 0.061 0.19 0.148 0.026 0.103-0.037 0.211-0.142 0.237-17.729 4.516-14.488 25.706-14.341 26.605 0.017 0.106-0.055 0.206-0.16 0.223-3e-3 1e-3 -6e-3 1e-3 -9e-3 1e-3m14.462-28.214c-0.098 0-0.197 0.013-0.293 0.037-18.966 4.831-15.409 27.944-15.371 28.177 0.104 0.643 0.701 1.09 1.366 0.987 0.653-0.104 1.096-0.718 0.992-1.37-0.14-0.864-3.251-21.185 13.602-25.477 0.639-0.164 1.025-0.817 0.863-1.454-0.136-0.53-0.612-0.9-1.159-0.9" fill="#c1af7c"/>
  <path transform="matrix(.35278 0 0 -.35278 166.02 152.65)" d="m0 0c-0.652 2.738-3.518 11.176-14.1 11.707 1.306-2.846 5.78-11.072 14.1-11.707m-15.16 13.121c14.541 0 16.683-13.617 16.703-13.754 0.029-0.201-0.031-0.404-0.165-0.556-0.134-0.153-0.299-0.254-0.53-0.239-11.596 0.141-16.612 13.483-16.661 13.617-0.078 0.213-0.046 0.45 0.084 0.637 0.129 0.186 0.341 0.295 0.569 0.295" fill="#d1b978"/>
  <path transform="matrix(.35278 0 0 -.35278 161.34 148.72)" d="m0 0c1.521-3.018 5.616-9.637 12.605-10.573-0.867 2.986-3.794 9.731-12.605 10.573m13.919-11.696-0.683 0.051c-8.665 0.662-13.301 9.351-14.516 11.998l-0.344 0.75 0.824-0.042c10.969-0.551 13.918-9.394 14.561-12.09zm-15.805 13.172c-0.065 0-0.123-0.03-0.159-0.082-0.037-0.052-0.046-0.118-0.024-0.178 0.049-0.132 4.959-13.153 16.197-13.289l0.04-0.502v0.5c0.021 0 0.047 0 0.109 0.07 0.037 0.042 0.054 0.099 0.046 0.154-0.02 0.134-2.153 13.327-16.209 13.327m16.054-14.551-0.08 3e-3c-11.958 0.144-17.046 13.807-17.096 13.946-0.133 0.361-0.08 0.771 0.142 1.092 0.224 0.319 0.59 0.51 0.98 0.51 14.999 0 17.178-14.041 17.199-14.184 0.05-0.345-0.054-0.694-0.285-0.957-0.239-0.272-0.528-0.41-0.86-0.41" fill="#c1af7c"/>
  <path transform="matrix(.35278 0 0 -.35278 159.48 173.62)" d="m0 0c8.356 2.221 8.588 11.934 8.446 14.998-9.242-3.853-8.795-12.469-8.446-14.998m9.071 16.682c0.128 0 0.255-0.036 0.367-0.106 0.18-0.111 0.299-0.301 0.323-0.512 0.017-0.152 1.563-15.183-10.181-17.589-0.37-0.08-0.737 0.16-0.818 0.531-0.029 0.129-2.698 13.012 10.073 17.633 0.076 0.029 0.156 0.043 0.236 0.043" fill="#d1b978"/>
  <path transform="matrix(.35278 0 0 -.35278 162.29 168.6)" d="m0 0c-7.631-3.569-7.816-10.69-7.54-13.594 6.905 2.232 7.58 10.197 7.54 13.594m-8.386-14.869-0.077 0.56c-0.363 2.636-0.806 11.544 8.749 15.529l0.659 0.274 0.033-0.713c0.141-3.051-0.079-13.182-8.817-15.505zm9.49 16.81c-12.371-4.465-9.849-16.944-9.821-17.069 0.022-0.1 0.125-0.162 0.223-0.149 11.292 2.314 9.806 16.898 9.79 17.045-6e-3 0.059-0.04 0.112-0.088 0.142-0.035 0.022-0.069 0.031-0.104 0.031m-9.635-18.222c-0.555 0-1.045 0.395-1.163 0.94-0.03 0.133-2.789 13.441 10.391 18.209 0.313 0.122 0.729 0.086 1.04-0.109 0.304-0.188 0.513-0.518 0.553-0.879 0.018-0.154 1.657-15.629-10.577-18.136-0.077-0.016-0.161-0.025-0.244-0.025" fill="#c1af7c"/>
  <path transform="matrix(.35278 0 0 -.35278 158.41 98.338)" d="m0 0c2.865 0 5.877-0.759 8.488-2.244 4.988-2.838 7.98-7.917 8.427-14.302 0.869-12.418-4.587-22.273-10.904-33.686-1.214-2.194-2.47-4.462-3.725-6.827-5.436-10.235-7.211-22.528-4.316-29.893 1.25-3.184 3.255-5.272 5.958-6.209 3.995-1.387 7.535-1.289 10.521 0.289 3.041 1.605 5.389 4.758 6.444 8.646 0.876 3.227-0.157 7.067-2.568 9.559-2.213 2.285-5.216 3.119-8.454 2.355-4.236-1.003-6.051-4.537-5.972-7.593 0.064-2.453 1.417-5.551 5.021-6.209 1.678-0.305 3.042-0.045 4.059 0.775 1.986 1.606 2.11 4.822 2.111 4.856 0.012 0.382 0.336 0.705 0.716 0.671 0.383-0.011 0.684-0.334 0.672-0.714-5e-3 -0.161-0.15-3.893-2.627-5.893-1.344-1.086-3.086-1.443-5.18-1.06-3.584 0.652-6.06 3.681-6.16 7.539-0.094 3.617 2.046 7.796 7.04 8.978 3.736 0.887 7.206-0.09 9.772-2.74 2.74-2.83 3.91-7.207 2.911-10.887-1.156-4.258-3.756-7.726-7.136-9.512-3.341-1.763-7.252-1.89-11.625-0.373-3.06 1.061-5.41 3.487-6.796 7.012-3.08 7.84-1.319 20.318 4.383 31.055 1.26 2.375 2.519 4.648 3.736 6.847 6.21 11.219 11.574 20.91 10.733 32.918-0.413 5.906-3.157 10.59-7.727 13.19-4.202 2.39-9.503 2.748-13.193 0.889-3.562-1.793-6.069-5.954-6.239-10.354-0.155-3.973 1.618-7.376 4.861-9.339 3.537-2.14 7.242-2.328 10.165-0.515 2.467 1.531 3.915 4.251 3.689 6.933-0.209 2.492-1.323 4.508-3.136 5.676-1.616 1.042-3.684 1.308-5.401 0.698-1.947-0.694-2.516-2.132-2.682-2.929-0.234-1.12 0.042-2.277 0.685-2.88 0.28-0.262 0.294-0.702 0.032-0.981-0.263-0.281-0.702-0.294-0.981-0.032-0.999 0.935-1.43 2.575-1.096 4.178 0.383 1.838 1.687 3.279 3.577 3.954 2.144 0.763 4.619 0.448 6.618-0.84 2.184-1.407 3.522-3.797 3.769-6.727 0.268-3.197-1.436-6.426-4.342-8.229-3.382-2.099-7.615-1.915-11.615 0.506-3.69 2.231-5.706 6.088-5.532 10.581 0.19 4.888 3.004 9.526 7.003 11.541 1.762 0.886 3.847 1.322 6.016 1.322" fill="#d1b978"/>
  <path transform="matrix(.35278 0 0 -.35278 158.41 98.648)" d="m0 0c2.765 0 5.621-0.759 8.044-2.138 4.72-2.685 7.554-7.511 7.979-13.589 0.851-12.156-4.546-21.906-10.794-33.195-1.216-2.196-2.473-4.466-3.733-6.84-5.636-10.614-7.388-22.926-4.359-30.637 1.332-3.387 3.578-5.711 6.495-6.722 4.217-1.464 8.024-1.351 11.228 0.343 3.256 1.719 5.766 5.073 6.887 9.2 0.954 3.517-0.166 7.7-2.789 10.408-2.427 2.507-5.761 3.438-9.297 2.602-4.721-1.118-6.744-5.064-6.655-8.48 0.094-3.613 2.405-6.451 5.749-7.059 1.94-0.357 3.553-0.032 4.777 0.957 2.293 1.851 2.436 5.372 2.442 5.52 2e-3 0.09-0.097 0.195-0.188 0.198-0.138-5e-3 -0.198-0.089-0.201-0.187-2e-3 -0.033-0.127-3.475-2.297-5.229-1.128-0.91-2.64-1.209-4.462-0.879-3.899 0.712-5.363 4.048-5.432 6.689-0.084 3.258 1.849 7.024 6.357 8.093 3.395 0.801 6.609-0.099 8.928-2.494 2.53-2.615 3.612-6.648 2.692-10.038-1.091-4.023-3.531-7.288-6.693-8.958-3.096-1.635-6.809-1.746-10.919-0.319-2.847 0.988-4.954 3.174-6.259 6.499-2.945 7.491-1.16 19.956 4.34 30.311 1.248 2.352 2.496 4.608 3.703 6.789 6.305 11.388 11.727 21.184 10.868 33.454-0.434 6.212-3.338 11.15-8.175 13.902-2.469 1.405-5.396 2.179-8.241 2.179-2.14 0-4.142-0.439-5.791-1.269-3.841-1.935-6.545-6.402-6.728-11.114-0.167-4.306 1.761-7.999 5.291-10.134 3.79-2.293 7.908-2.484 11.093-0.509 2.747 1.705 4.36 4.752 4.107 7.763-0.234 2.773-1.491 5.027-3.542 6.348-1.852 1.194-4.2 1.494-6.179 0.789-1.722-0.614-2.909-1.921-3.256-3.585-0.298-1.435 0.074-2.891 0.948-3.711 0.088-0.082 0.169-0.102 0.274 9e-3 0.049 0.052 0.055 0.11 0.054 0.139-1e-3 0.031-0.011 0.087-0.061 0.135-0.779 0.73-1.105 2.044-0.833 3.348 0.187 0.899 0.826 2.522 3.003 3.298 1.836 0.653 4.125 0.357 5.84-0.749 1.946-1.254 3.141-3.404 3.364-6.054 0.24-2.867-1.3-5.771-3.924-7.399-3.047-1.89-7.032-1.701-10.687 0.511-3.405 2.06-5.264 5.627-5.103 9.786 0.177 4.576 2.795 8.909 6.514 10.781 1.606 0.809 3.55 1.237 5.621 1.237m9.222-95.145c-1.865 0-3.855 0.363-5.918 1.079-3.201 1.109-5.656 3.634-7.097 7.301-3.13 7.967-1.359 20.615 4.406 31.472 1.264 2.381 2.523 4.656 3.741 6.855 6.171 11.15 11.501 20.78 10.671 32.642-0.4 5.733-3.055 10.275-7.475 12.789-2.275 1.294-4.956 2.007-7.55 2.007-1.916 0-3.704-0.391-5.171-1.13-3.404-1.714-5.801-5.703-5.965-9.927-0.147-3.784 1.538-7.025 4.621-8.891 3.333-2.018 6.913-2.212 9.642-0.518 2.309 1.432 3.665 3.97 3.456 6.466-0.197 2.334-1.23 4.215-2.91 5.297-1.459 0.942-3.417 1.199-4.962 0.648-1.717-0.612-2.216-1.866-2.361-2.56-0.196-0.94 0.025-1.933 0.538-2.414 0.233-0.217 0.367-0.513 0.377-0.832s-0.104-0.623-0.323-0.856c-0.43-0.46-1.225-0.488-1.687-0.054-1.124 1.052-1.612 2.875-1.244 4.645 0.42 2.012 1.841 3.587 3.899 4.322 2.27 0.809 4.946 0.47 7.057-0.89 2.317-1.493 3.736-4.016 3.996-7.105 0.284-3.382-1.512-6.795-4.576-8.696-3.501-2.171-8.026-1.986-12.138 0.503-3.85 2.328-5.954 6.348-5.772 11.028 0.196 5.065 3.121 9.874 7.277 11.968 1.788 0.9 3.946 1.376 6.241 1.376 3.015 0 6.118-0.82 8.735-2.31 5.138-2.923 8.22-8.144 8.679-14.701 0.879-12.565-4.61-22.481-10.965-33.962-1.231-2.224-2.477-4.476-3.721-6.82-5.373-10.116-7.138-22.237-4.293-29.477 1.195-3.04 3.098-5.031 5.657-5.919 3.841-1.333 7.273-1.248 10.124 0.259 2.918 1.541 5.176 4.579 6.195 8.335 0.83 3.062-0.153 6.71-2.446 9.08-2.072 2.141-4.934 2.933-7.979 2.217-3.962-0.939-5.661-4.24-5.587-7.095 0.059-2.265 1.302-5.125 4.611-5.729 1.52-0.279 2.76-0.05 3.655 0.672 1.794 1.45 1.924 4.453 1.925 4.483 0.02 0.638 0.541 1.157 1.162 1.157 0.388-0.011 0.684-0.145 0.903-0.379 0.218-0.232 0.333-0.535 0.323-0.853-0.014-0.421-0.213-4.167-2.813-6.266-1.454-1.176-3.349-1.571-5.584-1.164-3.823 0.696-6.463 3.918-6.57 8.019-0.099 3.819 2.158 8.231 7.425 9.477 3.881 0.922 7.571-0.115 10.246-2.879 2.859-2.952 4.078-7.52 3.034-11.365-1.192-4.393-3.884-7.973-7.384-9.823-1.863-0.983-3.917-1.482-6.105-1.482" fill="#c1af7c"/>
  <path transform="matrix(.35278 0 0 -.35278 160.31 110.28)" d="m0 0c0.118 0 0.238-0.03 0.347-0.094 0.332-0.191 0.445-0.616 0.254-0.948-0.207-0.358-20.618-35.978-14.02-54.31 1.594-4.429 4.69-7.525 9.202-9.199 0.36-0.135 0.543-0.533 0.409-0.892-0.133-0.36-0.535-0.543-0.892-0.411-4.914 1.825-8.287 5.2-10.027 10.034-6.814 18.937 13.267 53.99 14.125 55.473 0.129 0.223 0.362 0.347 0.602 0.347" fill="#d1b978"/>
  <path transform="matrix(.35278 0 0 -.35278 160.31 110.46)" d="m0 0c-0.071 0-0.134-0.036-0.169-0.097-0.853-1.475-20.819-36.346-14.087-55.054 1.687-4.688 4.96-7.963 9.73-9.734l0.066-0.011c0.068 0 0.151 0.039 0.184 0.126 0.037 0.101-0.015 0.213-0.117 0.251-4.654 1.727-7.85 4.922-9.497 9.498-6.662 18.512 13.849 54.369 14.057 54.729 0.036 0.061 0.028 0.119 0.02 0.148-7e-3 0.029-0.029 0.082-0.089 0.117zm-4.46-65.896c-0.142 0-0.281 0.024-0.415 0.074-5.058 1.878-8.531 5.354-10.322 10.333-6.887 19.139 13.3 54.401 14.162 55.893 0.318 0.549 1.083 0.754 1.633 0.435 0.275-0.159 0.472-0.416 0.555-0.724s0.04-0.631-0.119-0.907c-0.206-0.356-20.49-35.81-13.983-53.891 1.543-4.285 4.539-7.279 8.906-8.899 0.618-0.231 0.933-0.92 0.704-1.536-0.173-0.465-0.623-0.778-1.121-0.778" fill="#c1af7c"/>
  <path transform="matrix(.35278 0 0 -.35278 168.91 92.736)" d="m0 0c0.311 0 0.593-0.209 0.673-0.523 0.095-0.373-0.13-0.75-0.502-0.844-17.288-4.404-14.007-25.827-13.973-26.043 0.062-0.378-0.195-0.735-0.573-0.797-0.379-0.062-0.736 0.196-0.797 0.573-0.037 0.23-3.506 22.898 15 27.613 0.058 0.014 0.115 0.021 0.172 0.021" fill="#d1b978"/>
  <path transform="matrix(.35278 0 0 -.35278 168.91 92.912)" d="m0 0c-18.078-4.6-14.715-26.83-14.679-27.054 0.015-0.092 0.097-0.162 0.192-0.162l0.031 3e-3c0.105 0.017 0.178 0.117 0.161 0.222-0.036 0.222-3.338 22.104 14.343 26.608 0.068 0.018 0.104 0.063 0.119 0.089 0.016 0.025 0.039 0.079 0.021 0.147-0.021 0.086-0.099 0.147-0.188 0.147m-14.487-28.216c-0.589 0-1.084 0.421-1.179 1.002-0.038 0.234-3.548 23.357 15.371 28.177 0.626 0.16 1.293-0.236 1.452-0.863 0.079-0.31 0.032-0.632-0.131-0.906s-0.423-0.468-0.733-0.546c-16.797-4.279-13.635-25.267-13.601-25.479 0.106-0.647-0.336-1.262-0.986-1.369-0.066-0.011-0.13-0.016-0.193-0.016" fill="#c1af7c"/>
  <path transform="matrix(.35278 0 0 -.35278 161.02 118.04)" d="m0 0c10.581 0.53 13.447 8.969 14.1 11.706-8.319-0.636-12.794-8.86-14.1-11.706m14.955 13.133c0.2 0 0.391-0.085 0.523-0.236 0.133-0.153 0.194-0.357 0.165-0.557-0.02-0.139-2.164-13.755-16.705-13.755-0.227 0-0.439 0.11-0.569 0.296-0.13 0.187-0.161 0.425-0.083 0.638 0.049 0.133 5.066 13.474 16.661 13.614z" fill="#d1b978"/>
  <path transform="matrix(.35278 0 0 -.35278 165.76 114.12)" d="m0 0c-6.991-0.937-11.085-7.555-12.605-10.572 8.806 0.842 11.736 7.585 12.605 10.572m-14.229-11.674 0.344 0.749c1.214 2.647 5.85 11.334 14.516 11.996l0.684 0.053-0.159-0.667c-0.644-2.697-3.596-11.54-14.562-12.09zm15.753 13.174c-11.205-0.135-16.151-13.156-16.199-13.288-0.022-0.058-0.013-0.126 0.025-0.18 0.034-0.05 0.094-0.08 0.158-0.08 14.051 0 16.189 13.194 16.209 13.327 9e-3 0.056-9e-3 0.113-0.047 0.157-0.035 0.04-0.088 0.064-0.146 0.064m-16.016-14.548c-0.39 0-0.756 0.19-0.979 0.509-0.223 0.322-0.276 0.731-0.143 1.096 0.051 0.139 5.224 13.799 17.124 13.943 0.359 0 0.687-0.148 0.913-0.406 0.231-0.265 0.334-0.615 0.284-0.96-0.02-0.141-2.221-14.182-17.199-14.182" fill="#c1af7c"/>
  <path transform="matrix(.35278 0 0 -.35278 162.44 98.235)" d="m0 0c0.141 3.063-0.091 12.774-8.446 14.996-0.344-2.531-0.771-11.149 8.446-14.996m-9.008 16.536c0.046 0 0.093-4e-3 0.14-0.014 11.745-2.408 10.199-17.437 10.182-17.588-0.023-0.212-0.143-0.401-0.323-0.513-0.182-0.113-0.404-0.135-0.603-0.063-12.77 4.621-10.102 17.502-10.074 17.632 0.071 0.324 0.359 0.546 0.678 0.546" fill="#d1b978"/>
  <path transform="matrix(.35278 0 0 -.35278 159.61 93.173)" d="m0 0c-0.271-2.904-0.073-10.025 7.539-13.59 0.039 3.396-0.637 11.358-7.539 13.59m8.484-15.085-0.659 0.275c-9.533 3.978-9.107 12.889-8.75 15.525l0.076 0.561 0.548-0.145c8.738-2.323 8.958-12.453 8.818-15.503zm-9.445 16.769c-0.124 0-0.2-0.063-0.219-0.149-0.027-0.125-2.543-12.605 9.755-17.055l0.068-0.012c0.035 0 0.07 0.01 0.1 0.029 0.052 0.032 0.085 0.084 0.091 0.144 0.017 0.146 1.468 14.735-9.786 17.043zm9.604-18.216c-0.14 0-0.277 0.024-0.409 0.072-13.159 4.762-10.42 18.074-10.391 18.208 0.136 0.626 0.815 1.038 1.408 0.915 12.15-2.491 10.595-17.976 10.578-18.133-0.042-0.367-0.245-0.688-0.557-0.883-0.189-0.117-0.406-0.179-0.629-0.179" fill="#c1af7c"/>
  <path transform="matrix(.35278 0 0 -.35278 161.36 133.61)" d="m0 0c0.514 0 0.933 0.418 0.933 0.932 0 0.515-0.419 0.933-0.933 0.933-0.515 0-0.934-0.418-0.934-0.933 0-0.514 0.419-0.932 0.934-0.932m0 3.254c1.28 0 2.322-1.041 2.322-2.322 0-1.28-1.042-2.323-2.322-2.323-1.281 0-2.322 1.043-2.322 2.323 0 1.281 1.041 2.322 2.322 2.322" fill="#d1b978"/>
  <path transform="matrix(.35278 0 0 -.35278 161.36 133.13)" d="m0 0c-0.239 0-0.434-0.194-0.434-0.434 0-0.238 0.195-0.431 0.434-0.431s0.433 0.193 0.433 0.431c0 0.24-0.194 0.434-0.433 0.434m0-1.865c-0.791 0-1.434 0.642-1.434 1.431 0 0.79 0.643 1.434 1.434 1.434 0.79 0 1.433-0.644 1.433-1.434 0-0.789-0.643-1.431-1.433-1.431m0 3.254c-1.005 0-1.822-0.818-1.822-1.823 0-1.004 0.817-1.822 1.822-1.822s1.822 0.818 1.822 1.822c0 1.005-0.817 1.823-1.822 1.823m0-4.645c-1.556 0-2.822 1.266-2.822 2.822 0 1.557 1.266 2.823 2.822 2.823s2.822-1.266 2.822-2.823c0-1.556-1.266-2.822-2.822-2.822" fill="#c1af7c"/>
  <path transform="matrix(.35278 0 0 -.35278 164.84 133.4)" d="m0 0c0.178 0 0.323 0.145 0.323 0.322 0 0.178-0.145 0.323-0.323 0.323s-0.322-0.145-0.322-0.323c0-0.177 0.144-0.322 0.322-0.322m0 2.035c0.944 0 1.712-0.767 1.712-1.713 0-0.943-0.768-1.711-1.712-1.711-0.943 0-1.711 0.768-1.711 1.711 0 0.946 0.768 1.713 1.711 1.713" fill="#d1b978"/>
  <path transform="matrix(.35278 0 0 -.35278 164.84 133.22)" d="m0 0c-0.098 0-0.177-0.08-0.177-0.178 0-0.196 0.355-0.195 0.355 0 0 0.098-0.08 0.178-0.178 0.178m0-1c-0.454 0-0.822 0.369-0.822 0.822s0.368 0.823 0.822 0.823 0.823-0.37 0.823-0.823-0.369-0.822-0.823-0.822m0 2.035c-0.667 0-1.211-0.544-1.211-1.213 0-0.668 0.544-1.211 1.211-1.211 0.668 0 1.212 0.543 1.212 1.211 0 0.669-0.544 1.213-1.212 1.213m0-3.424c-1.219 0-2.211 0.993-2.211 2.211 0 1.22 0.992 2.213 2.211 2.213 1.22 0 2.212-0.993 2.212-2.213 0-1.218-0.992-2.211-2.212-2.211" fill="#c1af7c"/>
  <path transform="matrix(.35278 0 0 -.35278 167.28 132.82)" d="m0 0c0.72 0 1.305-0.586 1.305-1.307 0-0.718-0.585-1.302-1.305-1.302s-1.305 0.584-1.305 1.302c0 0.721 0.585 1.307 1.305 1.307" fill="#d1b978"/>
  <path transform="matrix(.35278 0 0 -.35278 167.28 133)" d="m0 0c-0.444 0-0.805-0.362-0.805-0.807 0-0.442 0.361-0.802 0.805-0.802s0.805 0.36 0.805 0.802c0 0.445-0.361 0.807-0.805 0.807m0-2.609c-0.995 0-1.805 0.808-1.805 1.802 0 0.996 0.81 1.807 1.805 1.807 0.996 0 1.805-0.811 1.805-1.807 0-0.994-0.809-1.802-1.805-1.802" fill="#c1af7c"/>
  <path transform="matrix(.35278 0 0 -.35278 153.71 134.19)" d="m0 0c1.42 0 2.575 1.154 2.575 2.574s-1.155 2.576-2.575 2.576-2.575-1.156-2.575-2.576 1.155-2.574 2.575-2.574m0 6.539c2.186 0 3.964-1.777 3.964-3.965 0-2.185-1.778-3.963-3.964-3.963-2.187 0-3.964 1.778-3.964 3.963 0 2.188 1.778 3.965 3.964 3.965" fill="#d1b978"/>
  <path transform="matrix(.35278 0 0 -.35278 153.71 132.55)" d="m0 0c-1.144 0-2.075-0.932-2.075-2.076s0.931-2.074 2.075-2.074 2.075 0.93 2.075 2.074-0.931 2.076-2.075 2.076m0-5.15c-1.696 0-3.075 1.379-3.075 3.074 0 1.696 1.379 3.076 3.075 3.076s3.075-1.38 3.075-3.076c0-1.695-1.379-3.074-3.075-3.074m0 6.539c-1.91 0-3.464-1.555-3.464-3.465 0-1.909 1.554-3.463 3.464-3.463s3.464 1.554 3.464 3.463c0 1.91-1.554 3.465-3.464 3.465m0-7.928c-2.461 0-4.464 2.002-4.464 4.463 0 2.462 2.003 4.465 4.464 4.465s4.464-2.003 4.464-4.465c0-2.461-2.003-4.463-4.464-4.463" fill="#c1af7c"/>
 </g>
</svg>
