<?xml version="1.0" encoding="UTF-8"?>
<!-- Created with Inkscape (http://www.inkscape.org/) -->
<svg width="124.51mm" height="15.493mm" version="1.1" viewBox="0 0 124.51 15.493" xmlns="http://www.w3.org/2000/svg">
    <g transform="translate(-175.68 -148.43)" fill="#d1b978">
        <path d="m196.86 157.38h57.387c0.85125 0 0.85125-1.3201 0-1.3201h-57.387c-0.8516 0-0.8516 1.3201 0 1.3201"/>
        <path transform="matrix(.35278 0 0 -.35278 255.71 159.19)"
              d="m0 0c0.062 0.123 0.25 1.619 1.154 4.15 0.929 2.515 2.512 6.134 5.947 10.121 1.714 1.981 3.954 4.04 6.918 5.817 1.503 0.864 3.155 1.68 5.03 2.268 1.869 0.58 3.903 1.005 6.037 1.073 2.124 0.061 4.317-0.143 6.41-0.71 0.531-0.12 1.031-0.315 1.546-0.48 0.253-0.088 0.507-0.177 0.763-0.265 0.252-0.088 0.565-0.231 0.841-0.348 0.283-0.126 0.566-0.254 0.851-0.382 0.288-0.129 0.497-0.269 0.748-0.406 0.471-0.277 0.984-0.557 1.382-0.853 1.738-1.168 3.116-2.437 4.45-3.765 1.33-1.328 2.541-2.727 3.737-4.186 2.372-2.917 4.675-5.524 7.07-7.769 2.389-2.244 4.852-4.132 7.373-5.586 2.515-1.454 5.093-2.469 7.585-2.952 2.489-0.488 4.881-0.423 6.888 0.116 2.014 0.565 3.582 1.605 4.679 2.711 0.519 0.633 0.97 1.18 1.283 1.809 0.305 0.648 0.547 1.211 0.677 1.818 0.25 1.239 0.219 2.285-0.071 3.311-0.275 0.989-0.75 1.808-1.359 2.501 0 0 0.654-0.479 1.583-1.345 0.923-0.872 2.131-2.12 3.058-3.865 0.459-0.872 0.852-1.884 1.06-3.038 0.164-1.11 0.174-2.413-0.192-3.827-0.204-0.688-0.493-1.417-0.886-2.182-0.401-0.755-0.972-1.471-1.639-2.247-0.68-0.753-1.549-1.43-2.54-2.135-1.017-0.591-2.188-1.275-3.504-1.68-1.33-0.496-2.708-0.749-4.164-0.963-1.405-0.123-2.894-0.191-4.312-0.058-2.869 0.222-5.675 0.921-8.235 1.936-5.139 2.04-9.509 5.149-13.273 8.461-3.786 3.316-6.998 6.888-9.921 10.055-1.457 1.578-2.848 3.062-4.147 4.236-0.323 0.29-0.651 0.587-0.946 0.81-0.159 0.12-0.295 0.257-0.479 0.368l-0.557 0.333c-0.372 0.231-0.75 0.45-1.134 0.622-0.383 0.18-0.77 0.394-1.161 0.525-1.562 0.643-3.15 1.001-4.686 1.135-1.534 0.138-3.036 0.109-4.431-0.099-2.826-0.37-5.266-1.253-7.516-2.383-2.242-1.156-4.277-2.632-6.243-4.609-0.983-0.989-1.944-2.108-2.882-3.404-0.465-0.651-0.936-1.338-1.392-2.089-0.229-0.375-0.457-0.761-0.684-1.171-0.113-0.209-0.227-0.419-0.342-0.632-0.122-0.235-0.216-0.415-0.374-0.747"/>
        <path transform="matrix(.35278 0 0 -.35278 271.05 156.17)"
              d="m0 0c0.143 0.184 0.709 2.012 2.81 4.896 1.069 1.43 2.533 3.142 4.781 4.832 1.124 0.84 2.445 1.673 4.012 2.39 1.568 0.711 3.395 1.294 5.418 1.588 2.018 0.297 4.226 0.285 6.411-0.099 2.187-0.378 4.338-1.113 6.317-2.108 0.484-0.255 0.96-0.524 1.443-0.798l0.361-0.206 0.272-0.172 0.546-0.348c0.725-0.469 1.481-0.947 2.204-1.452 0.724-0.504 1.463-1.024 2.195-1.561 0.712-0.542 1.437-1.093 2.175-1.654 2.891-2.259 5.699-4.734 8.514-7.102 1.416-1.222 2.823-2.304 4.301-3.409 1.474-1.029 3.008-1.986 4.727-2.779 0.43-0.181 0.869-0.326 1.316-0.492 0.446-0.183 0.9-0.282 1.361-0.376 0.46-0.086 0.93-0.229 1.401-0.265 0.481-0.036 0.958-0.072 1.429-0.107 1.905-0.085 3.798 0.168 5.48 0.901 1.674 0.726 3.177 1.903 4.174 3.446 1.037 1.521 1.579 3.33 1.731 5.107 0.281 3.58-0.933 7.013-2.905 9.428-0.985 1.214-2.165 2.189-3.427 2.828-1.264 0.655-2.581 0.909-3.842 0.891-2.517 0.085-4.633-0.814-5.939-1.984-1.337-1.164-1.873-2.642-1.826-3.779 0.042-1.159 0.678-1.977 1.503-2.263 0.196-0.067-8e-3 0.013-0.096 0.035-0.104 0.03-0.206 0.055-0.305 0.075-0.195 0.043-0.398 0.053-0.523 0.089-0.28 0.054-0.502 0.055-0.631 0.052 0 0-0.175-7e-3 -0.105-3e-3 0.031 1e-3 0.066 2e-3 0.104 3e-3l0.096 1e-3 0.062-1e-3c6e-3 0 0.034-1e-3 0.022 0l-0.153 0.01c-0.812 0.066-1.76 0.208-2.597 0.673-0.871 0.449-1.681 1.212-2.2 2.353-0.536 1.152-0.715 2.646-0.308 4.421 0.415 1.755 1.503 3.751 3.566 5.492 2.038 1.735 5.141 3.098 8.793 3.334 0.453 0.028 0.921 0.059 1.379 0.058 0.449-0.015 0.904-0.038 1.364-0.07 0.886-0.037 2.097-0.26 3.2-0.591 2.271-0.68 4.362-1.855 6.101-3.271 3.499-2.872 5.82-6.658 7.033-10.889 0.598-2.124 0.908-4.385 0.836-6.746-0.073-2.354-0.54-4.822-1.519-7.203-0.969-2.377-2.479-4.638-4.344-6.437-1.861-1.809-4.026-3.143-6.159-4.008-2.14-0.855-4.232-1.284-6.217-1.491-0.98-0.057-1.951-0.094-2.908-0.114-0.972 0.035-1.941 0.127-2.887 0.213-3.82 0.49-7.228 1.876-9.971 3.519-5.505 3.349-8.974 7.322-12.082 10.622-3.056 3.344-5.449 6.127-7.722 8.511-2.211 2.457-4.949 4.391-8.214 5.293-3.259 0.889-7.021 0.649-10.561-0.883-1.775-0.756-3.509-1.804-5.164-3.152-0.826-0.676-1.636-1.425-2.427-2.262-0.397-0.418-0.784-0.862-1.174-1.333-0.193-0.236-0.388-0.481-0.582-0.738l-0.297-0.403c-0.111-0.156-0.183-0.253-0.353-0.512"/>
        <path transform="matrix(.35278 0 0 -.35278 201.94 156.72)"
              d="m0 0c0-5.468-4.433-9.901-9.901-9.901-5.469 0-9.902 4.433-9.902 9.901s4.433 9.902 9.902 9.902c5.468 0 9.901-4.434 9.901-9.902"/>
        <path transform="matrix(.35278 0 0 -.35278 193.79 156.72)"
              d="m0 0c0-4.557-3.694-8.251-8.251-8.251s-8.251 3.694-8.251 8.251 3.694 8.251 8.251 8.251 8.251-3.694 8.251-8.251"/>
        <path transform="matrix(.35278 0 0 -.35278 186.1 156.72)"
              d="m0 0c0-3.646-2.956-6.601-6.601-6.601-3.646 0-6.601 2.955-6.601 6.601s2.955 6.601 6.601 6.601c3.645 0 6.601-2.955 6.601-6.601"/>
        <path transform="matrix(.35278 0 0 -.35278 178.83 156.72)"
              d="m0 0c0-2.46-1.995-4.456-4.456-4.456s-4.455 1.996-4.455 4.456 1.994 4.456 4.455 4.456 4.456-1.996 4.456-4.456"/>
    </g>
</svg>
